<!-- draw your own -->

<svg xmlns="http://www.w3.org/2000/svg" xmlns:xlink="http://www.w3.org/1999/xlink" viewBox="0 0 1053 561">
  <g>
    <path d="M244,575H31V427H244ZM57.42,538.68c6.15,0,12,.24,17.71-.13a11.22,11.22,0,0,0,6.47-2.65c6.33-5.91,12.19-12.31,18.54-18.19a11.38,11.38,0,0,1,6.87-2.88c16.15-.24,32.31-.12,48.47-.14,1.75,0,3.5-.16,5.73-.27V499.13H177v15.73H200.3c.26,2.88.46,5.13.66,7.36h23.43V490.46h-15.7V467.13a16,16,0,0,0-2.46-.46c-24.15,0-48.3-.09-72.45.06a8.46,8.46,0,0,0-5.07,2.45c-6.37,6.11-12.42,12.56-18.87,18.58a10.62,10.62,0,0,1-6.46,2.68c-12.65.25-25.31.12-38,.12h-8Z" transform="translate(-31 -14)"/>
    <path d="M57.42,538.68V490.56h8c12.66,0,25.32.13,38-.12a10.62,10.62,0,0,0,6.46-2.68c6.45-6,12.5-12.47,18.87-18.58a8.46,8.46,0,0,1,5.07-2.45c24.15-.15,48.3-.09,72.45-.06a16,16,0,0,1,2.46.46v23.33h15.7v31.76H201c-.2-2.23-.4-4.48-.66-7.36H177V499.13H161.21v15.29c-2.23.11-4,.27-5.73.27-16.16,0-32.32-.1-48.47.14a11.38,11.38,0,0,0-6.87,2.88C93.79,523.59,87.93,530,81.6,535.9a11.22,11.22,0,0,1-6.47,2.65C69.37,538.92,63.57,538.68,57.42,538.68ZM66,499c-1.38,7-1.13,7.35,5.1,7.35H147c6.54,0,7-.62,5.08-7.35Zm86.47-8.85V474.83c-4.81,0-9.26-.08-13.71,0-1.59,0-3.63.05-4.67,1-4.8,4.26-9.32,8.85-15,14.33ZM65.71,529.73c13.27,3.55,16.48-8.6,23.61-14.64H65.71Zm95.52-39.51h15.25v-15H161.23Zm24-15.11v15.42c4.4,0,8.67.13,12.91-.11a3.39,3.39,0,0,0,2.36-2.3c.24-4.24.11-8.5.11-13Zm23.92,39.13c2.84-.7,6.71,2.39,7.36-2.59.53-4,.11-8.2.11-12.61h-7.47ZM200,499.06H185.4V506a12.79,12.79,0,0,0,1.87.35c2.49.05,5,.08,7.48.07C201.05,506.37,201.27,506.08,200,499.06Z" transform="translate(-31 -14)"/>
    <path d="M66,499h86c1.88,6.73,1.46,7.35-5.08,7.35H71.13C64.9,506.38,64.65,506,66,499Z" transform="translate(-31 -14)"/>
    <path d="M152.5,490.18H119.12c5.68-5.48,10.2-10.07,15-14.33,1-.93,3.08-.94,4.67-1,4.45-.12,8.9,0,13.71,0Z" transform="translate(-31 -14)"/>
    <path d="M65.71,529.73V515.09H89.32C82.19,521.13,79,533.28,65.71,529.73Z" transform="translate(-31 -14)"/>
    <path d="M161.23,490.22v-15h15.25v15Z" transform="translate(-31 -14)"/>
    <path d="M185.2,475.11h15.38c0,4.51.13,8.77-.11,13a3.39,3.39,0,0,1-2.36,2.3c-4.24.24-8.51.11-12.91.11Z" transform="translate(-31 -14)"/>
    <path d="M209.12,514.24V499h7.47c0,4.41.42,8.58-.11,12.61C215.83,516.63,212,513.54,209.12,514.24Z" transform="translate(-31 -14)"/>
    <path d="M200,499.06c1.29,7,1.07,7.31-5.23,7.32-2.49,0-5,0-7.48-.07a12.79,12.79,0,0,1-1.87-.35v-6.9Z" transform="translate(-31 -14)"/>
  </g>
  </svg>